<?xml version="1.0" encoding="UTF-8" standalone="no"?>
<!DOCTYPE svg PUBLIC "-//W3C//DTD SVG 1.1//EN" "http://www.w3.org/Graphics/SVG/1.1/DTD/svg11.dtd">
<svg width="100%" height="100%" viewBox="0 0 1280 400" version="1.1" xmlns="http://www.w3.org/2000/svg" xmlns:xlink="http://www.w3.org/1999/xlink" xml:space="preserve" xmlns:serif="http://www.serif.com/" style="fill-rule:evenodd;clip-rule:evenodd;stroke-linejoin:round;stroke-miterlimit:2;">
    <g id="Artboard1" transform="matrix(1,0,0,0.5,0,0)">
        <rect x="0" y="0" width="1280" height="800" style="fill:rgb(31,30,42);"/>
        <g transform="matrix(6.84503,0,0,13.6901,-1776.89,-1685.97)">
            <g transform="matrix(12,0,0,12,367.653,151.711)">
            </g>
            <text x="300.153px" y="151.711px" style="font-family:'PixelOperator-Bold', 'Pixel Operator';font-weight:700;font-size:12px;fill:rgb(238,238,238);">TENNA EDITOR</text>
        </g>
        <g transform="matrix(0.304209,0,0,0.608417,177.432,400)">
            <g transform="matrix(1,0,0,1,-256,-256)">
                <clipPath id="_clip1">
                    <rect x="0" y="0" width="512" height="512"/>
                </clipPath>
                <g clip-path="url(#_clip1)">
                    <path d="M129,1C144.688,1 160.375,1 176.531,1.467C177,6.864 177,11.793 177,17.252L193.194,17.252L193.194,65.138L209.259,65.138L209.259,81.204L225.147,81.204L225.147,128.598L305.207,128.598L305.207,112.849L336.593,112.849L336.593,80.786L320.84,80.786L320.84,64.897L272.954,64.897L272.954,48.831L257.239,48.831L257.239,16.944L273,16.944L273,1C283.354,1 293.708,1 304.531,1.467C305,6.864 305,11.793 305,17.252L321.195,17.252L321.195,49.14L337.262,49.14L337.262,65.207L353.151,65.207L353.151,113.27L401.214,113.27L401.214,129.16L417.103,129.16L417.103,176.705L433.17,176.705L433.17,160.887L465.058,160.887L465.058,145L513,145C513,166.021 513,187.042 512.533,208.531C507.137,209 502.209,209 496.752,209L496.752,225.192L480.864,225.192L480.864,241.257L464.799,241.257L464.799,257.145L448.734,257.145L448.734,273.21L433.346,273.21L433.346,321.272L449.211,321.272L449.211,385.153L464.596,385.153L464.596,465.21L448.846,465.21L448.846,480.609L176.816,480.609L176.816,464.874L144.753,464.874L144.753,448.811L112.867,448.811L112.867,432.748L80.803,432.748L80.803,416.86L64.739,416.86L64.739,400.795L48.851,400.795L48.851,384.73L32.788,384.73L32.788,352.843L17.4,352.843L17.4,192.798L33.146,192.798L33.146,176.734L49.211,176.734L49.211,160.849L113.27,160.849L113.27,144.792L193.149,144.792L193.149,128.729L208.711,128.729L208.711,96.844L192.721,96.844L192.721,80.782L160.836,80.782L160.836,64.893L128.95,64.893L128.95,48.829L113.24,48.829L113.24,16.943L129,16.943L129,1M369.88,384.985L385.203,384.985L385.203,368.863L416.694,368.863L416.694,352.813L400.875,352.813L400.875,337.302L384.821,337.302L384.821,352.616L240.833,352.616L240.833,336.895L225.38,336.895L225.38,320.842L240.681,320.842L240.681,305.368L193.249,305.368L193.249,321.073L209.183,321.073L209.183,353.118L225.057,353.118L225.057,369.138L369.082,369.138C369.082,374.78 369.082,379.917 368.134,385.009L305.322,385.009L305.322,400.659L368.94,400.659C368.94,395.185 368.94,390.049 369.88,384.985M350.5,129L320.885,129L320.885,145.051L208.834,145.051L208.834,161.282L128.782,161.282L128.782,177.161L64.898,177.161L64.898,193.046L48.834,193.046L48.834,209.11L33.29,209.11L33.29,337.159L49.279,337.159L49.279,369.218L65.165,369.218L65.165,385.108L81.052,385.108L81.052,401.173L97.117,401.173L97.117,417.059L129.18,417.059L129.18,433.122L161.065,433.122L161.065,449.184L193.128,449.184L193.128,464.709L433.159,464.709L433.159,448.897L448.707,448.897L448.707,401.352L416.894,401.352L416.894,417.049L400.83,417.049L400.83,432.594L240.787,432.594L240.787,416.844L208.723,416.844L208.723,400.783L192.836,400.783L192.836,384.893L176.949,384.893L176.949,368.828L160.885,368.828L160.885,352.941L144.82,352.941L144.82,336.876L129.299,336.876L129.299,240.823L145.12,240.823L145.12,224.936L161.185,224.936L161.185,208.871L177.073,208.871L177.073,192.81L225.133,192.81L225.133,176.935L400.643,176.935L400.643,144.884L384.94,144.884L384.94,129L350.5,129M289.004,259.727L289.004,273.102L273.38,273.102L273.38,305.162L289.105,305.162L289.105,320.62L337.162,320.62L337.162,304.899L385.218,304.899L385.218,288.839L401.104,288.839L401.104,272.776L417.167,272.776L417.167,256.89L433.229,256.89L433.229,240.828L449.115,240.828L449.115,224.765L465.178,224.765L465.178,208.879L481.24,208.879L481.24,192.816L496.667,192.816L496.667,161.393L480.813,161.393L480.813,177.128L448.753,177.128L448.753,193.187L416.87,193.187L416.87,209.247L384.81,209.247L384.81,225.131L352.749,225.131L352.749,241.191L320.866,241.191L320.866,257C311.35,257 302.372,256.921 293.399,257.08C291.931,257.106 290.482,258.183 289.004,259.727Z" style="fill:rgb(229,49,112);fill-rule:nonzero;"/>
                </g>
            </g>
        </g>
        <g transform="matrix(4.61525,0,0,9.15213,-1297.27,-1731.42)">
            <g transform="matrix(12,0,0,12,535.001,245.471)">
            </g>
            <text x="341.501px" y="245.471px" style="font-family:'PixelOperator-Bold', 'Pixel Operator';font-weight:700;font-size:12px;fill:rgb(172,174,176);">AN UNOFFICIAL DELTARUNE SAVE EDITOR</text>
        </g>
    </g>
</svg>
