<svg xmlns="http://www.w3.org/2000/svg" viewBox="0 -0.5 34 11" shape-rendering="crispEdges">
  <metadata>tenna-editor (https://github.com/tennaproject/tenna-editor)</metadata>
  <defs>
    <filter id="blend" color-interpolation-filters="sRGB">
      <feFlood flood-color="currentColor" result="blend"/>
      <feComposite in="blend" in2="SourceAlpha" operator="in" result="blendMasked"/>
      <feComposite in="SourceGraphic" in2="blendMasked" operator="arithmetic" k1="0" k2="1" k3="0.4" k4="0"/>
    </filter>
  </defs>

  <path filter="url(#blend)" stroke="#7f7f7f" d="M31 1h1M30 2h1M29 3h1M3 4h2M6 4h23M5 5h2M28 5h2M5 6h1M29 6h1M5 7h1M29 7h1M5 8h2M28 8h2M6 9h23" />
  <path filter="url(#blend)" stroke="#535353" d="M32 1h1M31 2h2M30 3h3M30 4h2M2 5h2M10 5h3M16 5h3M22 5h3M2 6h2M8 6h1M11 6h1M14 6h1M17 6h1M20 6h1M23 6h1M26 6h1M2 7h2M8 7h1M11 7h1M14 7h1M17 7h1M20 7h1M23 7h1M26 7h1M2 8h2M10 8h3M16 8h3M22 8h3M3 9h2" />

  <path stroke="#000000" d="M31 0h2M30 1h1M33 1h1M29 2h1M33 2h1M3 3h26M33 3h1M2 4h1M5 4h1M29 4h1M32 4h1M1 5h1M4 5h1M7 5h3M13 5h3M19 5h3M25 5h3M30 5h2M1 6h1M4 6h1M6 6h2M9 6h2M12 6h2M15 6h2M18 6h2M21 6h2M24 6h2M27 6h2M30 6h1M1 7h1M4 7h1M6 7h2M9 7h2M12 7h2M15 7h2M18 7h2M21 7h2M24 7h2M27 7h2M30 7h1M1 8h1M4 8h1M7 8h3M13 8h3M19 8h3M25 8h3M30 8h1M2 9h1M5 9h1M29 9h1M3 10h26" />
</svg>