<?xml version="1.0" encoding="UTF-8" ?>
<svg version="1.1" viewBox="0 0 28 23" xmlns="http://www.w3.org/2000/svg" shape-rendering="crispEdges">
<rect x="10" y="0" width="8" height="9" fill="currentColor" />
<rect x="7" y="1" width="3" height="7" fill="currentColor" />
<rect x="18" y="1" width="3" height="10" fill="currentColor" />
<rect x="5" y="2" width="2" height="8" fill="currentColor" />
<rect x="21" y="2" width="2" height="10" fill="currentColor" />
<rect x="4" y="3" width="1" height="18" fill="currentColor" />
<rect x="23" y="3" width="1" height="10" fill="currentColor" />
<rect x="3" y="4" width="1" height="15" fill="currentColor" />
<rect x="24" y="4" width="1" height="8" fill="currentColor" />
<rect x="25" y="5" width="1" height="16" fill="currentColor" />
<rect x="2" y="6" width="1" height="17" fill="currentColor" />
<rect x="26" y="7" width="1" height="15" fill="currentColor" />
<rect x="8" y="8" width="2" height="3" fill="currentColor" />
<rect x="10" y="9" width="2" height="3" fill="currentColor" />
<rect x="13" y="9" width="5" height="1" fill="currentColor" />
<rect x="1" y="10" width="1" height="11" fill="currentColor" />
<rect x="5" y="10" width="1" height="12" fill="currentColor" />
<rect x="16" y="10" width="2" height="1" fill="currentColor" />
<rect x="27" y="10" width="1" height="10" fill="currentColor" />
<rect x="9" y="11" width="1" height="1" fill="currentColor" />
<rect x="12" y="11" width="1" height="1" fill="currentColor" />
<rect x="20" y="11" width="1" height="1" fill="currentColor" />
<rect x="13" y="13" width="8" height="5" fill="currentColor" />
<rect x="0" y="14" width="1" height="5" fill="currentColor" />
<rect x="11" y="14" width="2" height="4" fill="currentColor" />
<rect x="21" y="14" width="2" height="4" fill="currentColor" />
<rect x="24" y="14" width="1" height="1" fill="currentColor" />
<rect x="7" y="15" width="4" height="3" fill="currentColor" />
<rect x="24" y="17" width="1" height="5" fill="currentColor" />
<rect x="8" y="18" width="4" height="1" fill="currentColor" />
<rect x="18" y="18" width="4" height="1" fill="currentColor" />
<rect x="6" y="19" width="1" height="4" fill="currentColor" />
<rect x="9" y="19" width="12" height="1" fill="currentColor" />
<rect x="23" y="19" width="1" height="4" fill="currentColor" />
<rect x="7" y="20" width="1" height="2" fill="currentColor" />
<rect x="11" y="20" width="8" height="1" fill="currentColor" />
<rect x="22" y="20" width="1" height="2" fill="currentColor" />
<rect x="8" y="21" width="1" height="1" fill="currentColor" />
<rect x="21" y="21" width="1" height="1" fill="currentColor" />
</svg>