<?xml version="1.0" encoding="UTF-8" ?>
<svg version="1.1" viewBox="0 0 28 24" xmlns="http://www.w3.org/2000/svg" shape-rendering="crispEdges">
<rect x="0" y="0" width="3" height="2" fill="currentColor" />
<rect x="25" y="0" width="3" height="2" fill="currentColor" />
<rect x="4" y="1" width="2" height="2" fill="currentColor" />
<rect x="11" y="1" width="7" height="1" fill="currentColor" />
<rect x="22" y="1" width="2" height="2" fill="currentColor" />
<rect x="1" y="2" width="3" height="3" fill="currentColor" />
<rect x="7" y="2" width="4" height="1" fill="currentColor" />
<rect x="17" y="2" width="3" height="1" fill="currentColor" />
<rect x="24" y="2" width="3" height="3" fill="currentColor" />
<rect x="0" y="3" width="1" height="3" fill="currentColor" />
<rect x="4" y="3" width="1" height="7" fill="currentColor" />
<rect x="6" y="3" width="1" height="2" fill="currentColor" />
<rect x="20" y="3" width="2" height="1" fill="currentColor" />
<rect x="23" y="3" width="1" height="7" fill="currentColor" />
<rect x="27" y="3" width="1" height="3" fill="currentColor" />
<rect x="5" y="4" width="1" height="3" fill="currentColor" />
<rect x="21" y="4" width="2" height="1" fill="currentColor" />
<rect x="1" y="5" width="2" height="1" fill="currentColor" />
<rect x="22" y="5" width="1" height="2" fill="currentColor" />
<rect x="25" y="5" width="2" height="1" fill="currentColor" />
<rect x="10" y="6" width="1" height="16" fill="currentColor" />
<rect x="11" y="8" width="1" height="11" fill="currentColor" />
<rect x="9" y="9" width="1" height="12" fill="currentColor" />
<rect x="12" y="10" width="1" height="5" fill="currentColor" />
<rect x="1" y="11" width="4" height="2" fill="currentColor" />
<rect x="8" y="11" width="1" height="9" fill="currentColor" />
<rect x="13" y="11" width="1" height="4" fill="currentColor" />
<rect x="23" y="11" width="4" height="2" fill="currentColor" />
<rect x="14" y="12" width="2" height="3" fill="currentColor" />
<rect x="2" y="13" width="3" height="1" fill="currentColor" />
<rect x="7" y="13" width="1" height="5" fill="currentColor" />
<rect x="16" y="13" width="1" height="6" fill="currentColor" />
<rect x="23" y="13" width="3" height="1" fill="currentColor" />
<rect x="2" y="14" width="2" height="1" fill="currentColor" />
<rect x="17" y="14" width="3" height="6" fill="currentColor" />
<rect x="24" y="14" width="2" height="1" fill="currentColor" />
<rect x="15" y="15" width="1" height="4" fill="currentColor" />
<rect x="20" y="15" width="1" height="3" fill="currentColor" />
<rect x="3" y="16" width="1" height="4" fill="currentColor" />
<rect x="12" y="16" width="1" height="3" fill="currentColor" />
<rect x="14" y="16" width="1" height="2" fill="currentColor" />
<rect x="24" y="16" width="1" height="4" fill="currentColor" />
<rect x="4" y="19" width="1" height="3" fill="currentColor" />
<rect x="13" y="19" width="2" height="2" fill="currentColor" />
<rect x="23" y="19" width="1" height="3" fill="currentColor" />
<rect x="11" y="20" width="1" height="3" fill="currentColor" />
<rect x="16" y="20" width="3" height="1" fill="currentColor" />
<rect x="16" y="21" width="2" height="1" fill="currentColor" />
<rect x="2" y="22" width="2" height="1" fill="currentColor" />
<rect x="12" y="22" width="5" height="1" fill="currentColor" />
<rect x="24" y="22" width="2" height="1" fill="currentColor" />
<rect x="3" y="23" width="1" height="1" fill="currentColor" />
<rect x="24" y="23" width="1" height="1" fill="currentColor" />
</svg>