<?xml version="1.0" encoding="UTF-8" ?>
<svg version="1.1" viewBox="0 0 32 24" xmlns="http://www.w3.org/2000/svg" shape-rendering="crispEdges">
<rect x="14" y="0" width="2" height="8" fill="currentColor" />
<rect x="13" y="1" width="1" height="7" fill="currentColor" />
<rect x="16" y="1" width="1" height="8" fill="currentColor" />
<rect x="17" y="2" width="1" height="10" fill="currentColor" />
<rect x="9" y="3" width="2" height="8" fill="currentColor" />
<rect x="18" y="3" width="1" height="8" fill="currentColor" />
<rect x="21" y="3" width="2" height="9" fill="currentColor" />
<rect x="8" y="4" width="1" height="7" fill="currentColor" />
<rect x="12" y="4" width="1" height="1" fill="currentColor" />
<rect x="19" y="4" width="1" height="1" fill="currentColor" />
<rect x="23" y="4" width="1" height="7" fill="currentColor" />
<rect x="11" y="5" width="1" height="7" fill="currentColor" />
<rect x="20" y="5" width="1" height="7" fill="currentColor" />
<rect x="12" y="6" width="1" height="6" fill="currentColor" />
<rect x="19" y="6" width="1" height="4" fill="currentColor" />
<rect x="6" y="7" width="2" height="4" fill="currentColor" />
<rect x="24" y="7" width="1" height="4" fill="currentColor" />
<rect x="4" y="8" width="2" height="1" fill="currentColor" />
<rect x="15" y="8" width="1" height="1" fill="currentColor" />
<rect x="25" y="8" width="3" height="2" fill="currentColor" />
<rect x="5" y="9" width="1" height="1" fill="currentColor" />
<rect x="13" y="9" width="1" height="3" fill="currentColor" />
<rect x="28" y="9" width="1" height="1" fill="currentColor" />
<rect x="25" y="10" width="2" height="1" fill="currentColor" />
<rect x="5" y="11" width="1" height="2" fill="currentColor" />
<rect x="10" y="11" width="1" height="1" fill="currentColor" />
<rect x="14" y="11" width="1" height="1" fill="currentColor" />
<rect x="19" y="11" width="1" height="1" fill="currentColor" />
<rect x="26" y="11" width="1" height="1" fill="currentColor" />
<rect x="27" y="12" width="1" height="2" fill="currentColor" />
<rect x="4" y="13" width="1" height="2" fill="currentColor" />
<rect x="11" y="13" width="3" height="1" fill="currentColor" />
<rect x="19" y="13" width="3" height="1" fill="currentColor" />
<rect x="10" y="14" width="1" height="1" fill="currentColor" />
<rect x="14" y="14" width="1" height="1" fill="currentColor" />
<rect x="18" y="14" width="1" height="1" fill="currentColor" />
<rect x="22" y="14" width="1" height="1" fill="currentColor" />
<rect x="28" y="14" width="1" height="2" fill="currentColor" />
<rect x="3" y="15" width="1" height="2" fill="currentColor" />
<rect x="9" y="15" width="1" height="3" fill="currentColor" />
<rect x="12" y="15" width="1" height="2" fill="currentColor" />
<rect x="15" y="15" width="3" height="1" fill="currentColor" />
<rect x="20" y="15" width="1" height="2" fill="currentColor" />
<rect x="23" y="15" width="3" height="1" fill="currentColor" />
<rect x="7" y="16" width="2" height="1" fill="currentColor" />
<rect x="15" y="16" width="1" height="2" fill="currentColor" />
<rect x="17" y="16" width="1" height="2" fill="currentColor" />
<rect x="23" y="16" width="1" height="2" fill="currentColor" />
<rect x="29" y="16" width="1" height="1" fill="currentColor" />
<rect x="0" y="17" width="3" height="1" fill="currentColor" />
<rect x="30" y="17" width="2" height="1" fill="currentColor" />
<rect x="0" y="18" width="1" height="1" fill="currentColor" />
<rect x="10" y="18" width="1" height="1" fill="currentColor" />
<rect x="14" y="18" width="1" height="1" fill="currentColor" />
<rect x="18" y="18" width="1" height="1" fill="currentColor" />
<rect x="22" y="18" width="1" height="1" fill="currentColor" />
<rect x="28" y="18" width="3" height="1" fill="currentColor" />
<rect x="1" y="19" width="1" height="1" fill="currentColor" />
<rect x="4" y="19" width="1" height="1" fill="currentColor" />
<rect x="11" y="19" width="3" height="1" fill="currentColor" />
<rect x="19" y="19" width="3" height="1" fill="currentColor" />
<rect x="28" y="19" width="1" height="1" fill="currentColor" />
<rect x="2" y="20" width="2" height="1" fill="currentColor" />
<rect x="29" y="20" width="1" height="2" fill="currentColor" />
<rect x="3" y="21" width="1" height="1" fill="currentColor" />
<rect x="7" y="21" width="1" height="1" fill="currentColor" />
<rect x="8" y="21" width="2" height="3" fill="#F60E97" />
<rect x="23" y="21" width="1" height="3" fill="#F60E97" />
<rect x="24" y="21" width="1" height="2" fill="currentColor" />
<rect x="26" y="21" width="3" height="1" fill="currentColor" />
<rect x="30" y="21" width="1" height="1" fill="currentColor" />
<rect x="4" y="22" width="2" height="1" fill="currentColor" />
<rect x="7" y="22" width="1" height="2" fill="#F60E97" />
<rect x="10" y="22" width="4" height="2" fill="#F60E97" />
<rect x="20" y="22" width="3" height="2" fill="#F60E97" />
<rect x="25" y="22" width="1" height="1" fill="currentColor" />
<rect x="27" y="22" width="1" height="1" fill="currentColor" />
<rect x="6" y="23" width="1" height="1" fill="#F60E97" />
<rect x="14" y="23" width="6" height="1" fill="#F60E97" />
</svg>
