<svg fill="none" version="1.1" xmlns="http://www.w3.org/2000/svg" xmlns:xlink="http://www.w3.org/1999/xlink" x="0px" y="0px"
	 width="100%" viewBox="0 0 512 512" enable-background="new 0 0 512 512" xml:space="preserve">
<path fill="#E53170" opacity="1.000000" stroke="none" 
	d="
M129.000000,1.000000 
	C144.687561,1.000000 160.375122,1.000000 176.531342,1.467382 
	C177.000000,6.863652 177.000000,11.792541 177.000000,17.251583 
	C182.727615,17.251583 187.792511,17.251583 193.193665,17.251583 
	C193.193665,33.396175 193.193665,48.999504 193.193665,65.137596 
	C198.609375,65.137596 203.673660,65.137596 209.259048,65.137596 
	C209.259048,70.738647 209.259048,75.806358 209.259048,81.204025 
	C214.740051,81.204025 219.679062,81.204025 225.147156,81.204025 
	C225.147156,97.287575 225.147156,113.012726 225.147156,128.597870 
	C252.076538,128.597870 278.461243,128.597870 305.206970,128.597870 
	C305.206970,123.257515 305.206970,118.318626 305.206970,112.849411 
	C315.956940,112.849411 326.353485,112.849411 336.592834,112.849411 
	C336.592834,101.914124 336.592834,91.526360 336.592834,80.785538 
	C331.247345,80.785538 326.308868,80.785538 320.839539,80.785538 
	C320.839539,75.367004 320.839539,70.304939 320.839539,64.897064 
	C304.696503,64.897064 289.093079,64.897064 272.953552,64.897064 
	C272.953552,59.485420 272.953552,54.415230 272.953552,48.831352 
	C267.358185,48.831352 262.296600,48.831352 257.239380,48.831352 
	C257.239380,38.018623 257.239380,27.751263 257.239380,16.944006 
	C262.525452,16.944006 267.594788,16.944006 273.000000,16.944006 
	C273.000000,11.271677 273.000000,6.135839 273.000000,1.000000 
	C283.354218,1.000000 293.708466,1.000000 304.531342,1.467382 
	C305.000000,6.863788 305.000000,11.792812 305.000000,17.252113 
	C310.730103,17.252113 315.796875,17.252113 321.195374,17.252113 
	C321.195374,28.065092 321.195374,38.336681 321.195374,49.140469 
	C326.612946,49.140469 331.676636,49.140469 337.262177,49.140469 
	C337.262177,54.740112 337.262177,59.806202 337.262177,65.207413 
	C342.743469,65.207413 347.682281,65.207413 353.151031,65.207413 
	C353.151031,81.291458 353.151031,97.016792 353.151031,113.270309 
	C369.413971,113.270309 385.139069,113.270309 401.214111,113.270309 
	C401.214111,118.751740 401.214111,123.690414 401.214111,129.160065 
	C406.629761,129.160065 411.693268,129.160065 417.103027,129.160065 
	C417.103027,145.303482 417.103027,160.907166 417.103027,176.704788 
	C422.523926,176.704788 427.575836,176.704788 433.169525,176.704788 
	C433.169525,171.357269 433.169525,166.295654 433.169525,160.886887 
	C443.980621,160.886887 454.251373,160.886887 465.058258,160.886887 
	C465.058258,155.473343 465.058258,150.404358 465.058258,145.000000 
	C481.399536,145.000000 497.199768,145.000000 513.000000,145.000000 
	C513.000000,166.020889 513.000000,187.041794 512.532593,208.531342 
	C507.137054,209.000000 502.208954,209.000000 496.751678,209.000000 
	C496.751678,214.727600 496.751678,219.794373 496.751678,225.192352 
	C491.271118,225.192352 486.331024,225.192352 480.863678,225.192352 
	C480.863678,230.607773 480.863678,235.672119 480.863678,241.257050 
	C475.265289,241.257050 470.199432,241.257050 464.798950,241.257050 
	C464.798950,246.737793 464.798950,251.677063 464.798950,257.145020 
	C459.382416,257.145020 454.319214,257.145020 448.734253,257.145020 
	C448.734253,262.744049 448.734253,267.809265 448.734253,273.210114 
	C443.253510,273.210114 438.311340,273.210114 433.346313,273.210114 
	C433.346313,289.296722 433.346313,305.014557 433.346313,321.271667 
	C438.750366,321.271667 443.817566,321.271667 449.211090,321.271667 
	C449.211090,342.747681 449.211090,363.681854 449.211090,385.153320 
	C454.625732,385.153320 459.687927,385.153320 464.596191,385.153320 
	C464.596191,412.082184 464.596191,438.465851 464.596191,465.209686 
	C459.253967,465.209686 454.315216,465.209686 448.846039,465.209686 
	C448.846039,470.626099 448.846039,475.688385 448.846039,480.609253 
	C357.928436,480.609253 267.554596,480.609253 176.816223,480.609253 
	C176.816223,475.281403 176.816223,470.340820 176.816223,464.873962 
	C166.067352,464.873962 155.671158,464.873962 144.752716,464.873962 
	C144.752716,459.274872 144.752716,454.208893 144.752716,448.810852 
	C133.941376,448.810852 123.669861,448.810852 112.866531,448.810852 
	C112.866531,443.395905 112.866531,438.331543 112.866531,432.747803 
	C101.936234,432.747803 91.541435,432.747803 80.803413,432.747803 
	C80.803413,427.267242 80.803413,422.327545 80.803413,416.859711 
	C75.387436,416.859711 70.323929,416.859711 64.738998,416.859711 
	C64.738998,411.260986 64.738998,406.195160 64.738998,400.795013 
	C59.258186,400.795013 54.319218,400.795013 48.851040,400.795013 
	C48.851040,395.378204 48.851040,390.315277 48.851040,384.729553 
	C43.250717,384.729553 38.183533,384.729553 32.787750,384.729553 
	C32.787750,373.917236 32.787750,363.646179 32.787750,352.843262 
	C27.370607,352.843262 22.308609,352.843262 17.399981,352.843262 
	C17.399981,299.252991 17.399981,246.206985 17.399981,192.798035 
	C22.738184,192.798035 27.677492,192.798035 33.145668,192.798035 
	C33.145668,187.381729 33.145668,182.318558 33.145668,176.733612 
	C38.746403,176.733612 43.814121,176.733612 49.210758,176.733612 
	C49.210758,171.252884 49.210758,166.311356 49.210758,160.849091 
	C70.626518,160.849091 91.682121,160.849091 113.270081,160.849091 
	C113.270081,155.251236 113.270081,150.184052 113.270081,144.791550 
	C140.078491,144.791550 166.344940,144.791550 193.148956,144.791550 
	C193.148956,139.377869 193.148956,134.315033 193.148956,128.729431 
	C198.749405,128.729431 203.816589,128.729431 208.710709,128.729431 
	C208.710709,117.915802 208.710709,107.647446 208.710709,96.843758 
	C203.372345,96.843758 198.308945,96.843758 192.721191,96.843758 
	C192.721191,91.244331 192.721191,86.178505 192.721191,80.782364 
	C181.908432,80.782364 171.638123,80.782364 160.835876,80.782364 
	C160.835876,75.362694 160.835876,70.301140 160.835876,64.893494 
	C150.025818,64.893494 139.755692,64.893494 128.950134,64.893494 
	C128.950134,59.481556 128.950134,54.411861 128.950134,48.828533 
	C123.355019,48.828533 118.293800,48.828533 113.239990,48.828533 
	C113.239990,38.016510 113.239990,27.749554 113.239990,16.943064 
	C118.526588,16.943064 123.595650,16.943064 129.000000,16.943064 
	C129.000000,11.271243 129.000000,6.135622 129.000000,1.000000 
M369.879913,384.985413 
	C374.812103,384.985413 379.744263,384.985413 385.203247,384.985413 
	C385.203247,379.320007 385.203247,374.261597 385.203247,368.863281 
	C396.007080,368.863281 406.273346,368.863281 416.694244,368.863281 
	C416.694244,363.449524 416.694244,358.399841 416.694244,352.813354 
	C411.339508,352.813354 406.278290,352.813354 400.875061,352.813354 
	C400.875061,347.339600 400.875061,342.400513 400.875061,337.301514 
	C395.458771,337.301514 390.408875,337.301514 384.821228,337.301514 
	C384.821228,342.653931 384.821228,347.712799 384.821228,352.616150 
	C336.584412,352.616150 288.888885,352.616150 240.833252,352.616150 
	C240.833252,347.297119 240.833252,342.358093 240.833252,336.895203 
	C235.423523,336.895203 230.357513,336.895203 225.379761,336.895203 
	C225.379761,331.293640 225.379761,326.241547 225.379761,320.841980 
	C230.694702,320.841980 235.634384,320.841980 240.681458,320.841980 
	C240.681458,315.423737 240.681458,310.374725 240.681458,305.367615 
	C224.647690,305.367615 208.935135,305.367615 193.248535,305.367615 
	C193.248535,310.672058 193.248535,315.606415 193.248535,321.072662 
	C198.540527,321.072662 203.604141,321.072662 209.182846,321.072662 
	C209.182846,331.994293 209.182846,342.385651 209.182846,353.118195 
	C214.652313,353.118195 219.593048,353.118195 225.056747,353.118195 
	C225.056747,358.523499 225.056747,363.586639 225.056747,369.138214 
	C273.291718,369.138214 320.989105,369.138214 369.081818,369.138214 
	C369.081818,374.779846 369.081818,379.917236 368.134155,385.009369 
	C347.229156,385.009369 326.324188,385.009369 305.322113,385.009369 
	C305.322113,390.591339 305.322113,395.636688 305.322113,400.659454 
	C326.671082,400.659454 347.696075,400.659454 368.940125,400.659454 
	C368.940125,395.184814 368.940125,390.048706 369.879913,384.985413 
M350.500000,129.000000 
	C340.744659,129.000000 330.989288,129.000000 320.885132,129.000000 
	C320.885132,134.647461 320.885132,139.589996 320.885132,145.051254 
	C283.473236,145.051254 246.422607,145.051254 208.834351,145.051254 
	C208.834351,150.636444 208.834351,155.699203 208.834351,161.282013 
	C181.909821,161.282013 155.525589,161.282013 128.782135,161.282013 
	C128.782135,166.759399 128.782135,171.696579 128.782135,177.160629 
	C107.363411,177.160629 86.308167,177.160629 64.898148,177.160629 
	C64.898148,182.634369 64.898148,187.577164 64.898148,193.045532 
	C59.488796,193.045532 54.423405,193.045532 48.833931,193.045532 
	C48.833931,198.640259 48.833931,203.702103 48.833931,209.110107 
	C43.357285,209.110107 38.414734,209.110107 33.290215,209.110107 
	C33.290215,251.856262 33.290215,294.235992 33.290215,337.158600 
	C38.631393,337.158600 43.693211,337.158600 49.278641,337.158600 
	C49.278641,348.087585 49.278641,358.481079 49.278641,369.217590 
	C54.760284,369.217590 59.701981,369.217590 65.164597,369.217590 
	C65.164597,374.636139 65.164597,379.699432 65.164597,385.108398 
	C70.641373,385.108398 75.584114,385.108398 81.052185,385.108398 
	C81.052185,390.520325 81.052185,395.589935 81.052185,401.172699 
	C86.647453,401.172699 91.708939,401.172699 97.116737,401.172699 
	C97.116737,406.649628 97.116737,411.592133 97.116737,417.059326 
	C107.864105,417.059326 118.258598,417.059326 129.179810,417.059326 
	C129.179810,422.651276 129.179810,427.713959 129.179810,433.121826 
	C139.989929,433.121826 150.259979,433.121826 161.065430,433.121826 
	C161.065430,438.532410 161.065430,443.597626 161.065430,449.184357 
	C171.993942,449.184357 182.389236,449.184357 193.128387,449.184357 
	C193.128387,454.661591 193.128387,459.603943 193.128387,464.709229 
	C273.201965,464.709229 352.909363,464.709229 433.159149,464.709229 
	C433.159149,459.366943 433.159149,454.304810 433.159149,448.896759 
	C438.635590,448.896759 443.578156,448.896759 448.706757,448.896759 
	C448.706757,432.812927 448.706757,417.096100 448.706757,401.352112 
	C438.024384,401.352112 427.638641,401.352112 416.894348,401.352112 
	C416.894348,406.638306 416.894348,411.581116 416.894348,417.049316 
	C411.482819,417.049316 406.412933,417.049316 400.829529,417.049316 
	C400.829529,422.643921 400.829529,427.705139 400.829529,432.594025 
	C347.240326,432.594025 294.195190,432.594025 240.786530,432.594025 
	C240.786530,427.250092 240.786530,422.311951 240.786530,416.844299 
	C230.035889,416.844299 219.641052,416.844299 208.722672,416.844299 
	C208.722672,411.245331 208.722672,406.179413 208.722672,400.782837 
	C203.241409,400.782837 198.303802,400.782837 192.836456,400.782837 
	C192.836456,395.362488 192.836456,390.300507 192.836456,384.892639 
	C187.358841,384.892639 182.417740,384.892639 176.948853,384.892639 
	C176.948853,379.482788 176.948853,374.417419 176.948853,368.828308 
	C171.353638,368.828308 166.292099,368.828308 160.884506,368.828308 
	C160.884506,363.351227 160.884506,358.408539 160.884506,352.940704 
	C155.474030,352.940704 150.408447,352.940704 144.820160,352.940704 
	C144.820160,347.344818 144.820160,342.283600 144.820160,336.876099 
	C139.342850,336.876099 134.400482,336.876099 129.299484,336.876099 
	C129.299484,304.794678 129.299484,273.079956 129.299484,240.823364 
	C134.651932,240.823364 139.713165,240.823364 145.120483,240.823364 
	C145.120483,235.345154 145.120483,230.404129 145.120483,224.935730 
	C150.533539,224.935730 155.602142,224.935730 161.184814,224.935730 
	C161.184814,219.339462 161.184814,214.278412 161.184814,208.871399 
	C166.662598,208.871399 171.605087,208.871399 177.072845,208.871399 
	C177.072845,203.458099 177.072845,198.389999 177.072845,192.809692 
	C193.333557,192.809692 209.057709,192.809692 225.133148,192.809692 
	C225.133148,187.333221 225.133148,182.393036 225.133148,176.934967 
	C283.875366,176.934967 342.254456,176.934967 400.642761,176.934967 
	C400.642761,166.013443 400.642761,155.627701 400.642761,144.884003 
	C395.350891,144.884003 390.408203,144.884003 384.939911,144.884003 
	C384.939911,139.471832 384.939911,134.403137 384.939911,129.000000 
	C373.433868,129.000000 362.466949,129.000000 350.500000,129.000000 
M289.004028,259.726959 
	C289.004028,264.010712 289.004028,268.294464 289.004028,273.102112 
	C283.429321,273.102112 278.363953,273.102112 273.380310,273.102112 
	C273.380310,284.034790 273.380310,294.421112 273.380310,305.161896 
	C278.697540,305.161896 283.638794,305.161896 289.105103,305.161896 
	C289.105103,310.575012 289.105103,315.642365 289.105103,320.619873 
	C305.368317,320.619873 321.085907,320.619873 337.161896,320.619873 
	C337.161896,315.303009 337.161896,310.362000 337.161896,304.898956 
	C353.241943,304.898956 368.966003,304.898956 385.218140,304.898956 
	C385.218140,299.303619 385.218140,294.241333 385.218140,288.838928 
	C390.697083,288.838928 395.638306,288.838928 401.104004,288.838928 
	C401.104004,283.425262 401.104004,278.357513 401.104004,272.776337 
	C406.702057,272.776337 411.765259,272.776337 417.166595,272.776337 
	C417.166595,267.297668 417.166595,262.357178 417.166595,256.890472 
	C422.580231,256.890472 427.647552,256.890472 433.229187,256.890472 
	C433.229187,251.292206 433.229187,246.228119 433.229187,240.827850 
	C438.708496,240.827850 443.649078,240.827850 449.115051,240.827850 
	C449.115051,235.414230 449.115051,230.347473 449.115051,224.765244 
	C454.713562,224.765244 459.778412,224.765244 465.177673,224.765244 
	C465.177673,219.285858 465.177673,214.345612 465.177673,208.879364 
	C470.591431,208.879364 475.657532,208.879364 481.240295,208.879364 
	C481.240295,203.280655 481.240295,198.215118 481.240295,192.816406 
	C486.719543,192.816406 491.659363,192.816406 496.667053,192.816406 
	C496.667053,182.062927 496.667053,171.678192 496.667053,161.392761 
	C491.270874,161.392761 486.213684,161.392761 480.813354,161.392761 
	C480.813354,166.722183 480.813354,171.662415 480.813354,177.127563 
	C470.064728,177.127563 459.670502,177.127563 448.752808,177.127563 
	C448.752808,182.723083 448.752808,187.787292 448.752808,193.187439 
	C437.942444,193.187439 427.672211,193.187439 416.869812,193.187439 
	C416.869812,198.599808 416.869812,203.663605 416.869812,209.247345 
	C405.940521,209.247345 395.545715,209.247345 384.809540,209.247345 
	C384.809540,214.725571 384.809540,219.665894 384.809540,225.131104 
	C374.061707,225.131104 363.666138,225.131104 352.749237,225.131104 
	C352.749237,230.726883 352.749237,235.791107 352.749237,241.190979 
	C341.939117,241.190979 331.668396,241.190979 320.866272,241.190979 
	C320.866272,246.604568 320.866272,251.668579 320.866272,257.000214 
	C311.349792,257.000214 302.372162,256.920776 293.398743,257.079773 
	C291.931030,257.105774 290.481934,258.183136 289.004028,259.726959 
z"/>
</svg>